<?xml version="1.0" standalone="no"?>
<!DOCTYPE svg PUBLIC "-//W3C//DTD SVG 20010904//EN"
 "http://www.w3.org/TR/2001/REC-SVG-20010904/DTD/svg10.dtd">
<svg version="1.0" xmlns="http://www.w3.org/2000/svg"
 width="500.000000pt" height="500.000000pt" viewBox="0 0 500.000000 500.000000"
 preserveAspectRatio="xMidYMid meet">
<metadata>
Created by potrace 1.11, written by Peter Selinger 2001-2013
</metadata>
<g transform="translate(0.000000,500.000000) scale(0.100000,-0.100000)"
fill="#000000" stroke="none">
<path d="M2168 3832 l-37 -3 0 -148 0 -149 57 -7 c145 -17 241 -38 330 -71
461 -174 782 -615 801 -1101 1 -22 3 -22 152 -22 l152 0 -6 102 c-4 56 -9 115
-12 132 -38 189 -75 297 -152 447 -230 445 -700 771 -1172 814 -36 4 -68 7
-71 8 -3 1 -22 0 -42 -2z"/>
<path d="M2130 3285 c0 -141 2 -155 18 -156 9 0 24 -2 32 -4 8 -1 35 -6 60
-10 145 -22 314 -111 435 -230 200 -197 286 -477 230 -749 -72 -345 -363 -614
-706 -652 -30 -3 -57 -8 -61 -10 -4 -2 -7 -72 -7 -155 l-1 -152 72 6 c72 6 93
9 175 28 110 24 287 108 388 184 181 136 334 343 400 539 46 139 59 214 59
361 1 170 -6 221 -45 350 -110 355 -383 634 -734 748 -44 15 -96 29 -115 32
-19 3 -46 7 -60 10 -14 2 -51 7 -82 10 l-58 6 0 -156z"/>
<path d="M2130 2877 l0 -154 55 -12 c199 -45 340 -212 337 -401 -3 -195 -114
-350 -293 -410 -228 -77 -470 61 -534 306 -8 32 -16 59 -18 61 -3 2 -69 4
-148 5 l-144 1 -1 -49 c-3 -160 122 -388 280 -508 189 -144 446 -186 668 -110
111 37 196 90 279 173 83 83 146 182 178 277 31 93 34 111 36 234 5 210 -58
374 -200 516 -75 75 -106 99 -195 152 -57 34 -188 72 -246 72 l-54 0 0 -153z"/>
<path d="M2033 2629 c-81 -15 -148 -61 -197 -133 -89 -131 -79 -302 24 -420
18 -20 61 -52 94 -69 55 -28 70 -31 151 -31 79 0 96 3 140 27 124 66 186 167
186 302 0 211 -187 364 -398 324z"/>
</g>
</svg>
