<?xml version="1.0" standalone="no"?>
<!DOCTYPE svg PUBLIC "-//W3C//DTD SVG 20010904//EN"
 "http://www.w3.org/TR/2001/REC-SVG-20010904/DTD/svg10.dtd">
<svg version="1.0" xmlns="http://www.w3.org/2000/svg"
 width="512.000000pt" height="512.000000pt" viewBox="0 0 512.000000 512.000000"
 preserveAspectRatio="xMidYMid meet">
<metadata>
Created by potrace 1.11, written by Peter Selinger 2001-2013
</metadata>
<g transform="translate(0.000000,512.000000) scale(0.100000,-0.100000)"
fill="#000000" stroke="none">
<path d="M1972 4612 c-12 -2 -20 -8 -17 -13 4 -5 2 -9 -3 -9 -4 0 -6 -22 -2
-50 4 -27 4 -50 0 -50 -3 0 -3 -27 0 -60 3 -33 3 -60 0 -60 -3 0 -3 -27 0 -60
3 -33 3 -60 0 -60 -3 0 -5 -22 -5 -49 0 -27 3 -47 7 -45 4 2 9 1 12 -4 2 -4
22 -7 43 -6 21 1 42 -1 48 -4 5 -4 28 -7 50 -7 22 -1 51 -5 64 -9 17 -6 22 -5
16 4 -4 6 8 4 26 -6 19 -10 49 -16 67 -15 17 1 32 -1 32 -6 0 -5 16 -10 36
-11 20 -2 45 -7 55 -13 11 -5 19 -7 19 -4 0 3 13 -1 30 -10 16 -8 40 -15 55
-15 14 0 25 -4 25 -10 0 -5 7 -10 16 -10 9 0 37 -10 63 -23 25 -13 51 -24 56
-25 27 -5 45 -14 45 -23 0 -5 3 -8 8 -7 11 2 80 -31 87 -42 4 -6 11 -8 16 -5
5 4 9 1 9 -4 0 -6 7 -11 15 -11 8 0 15 -4 15 -10 0 -5 7 -10 15 -10 8 0 15 -4
15 -9 0 -5 8 -11 18 -15 24 -8 56 -29 65 -43 4 -7 15 -13 23 -13 8 0 13 -4 10
-8 -2 -4 8 -13 24 -21 16 -7 32 -21 35 -32 4 -11 10 -17 14 -14 5 2 36 -23 71
-55 34 -33 66 -60 71 -60 5 0 8 -4 6 -8 -1 -5 13 -23 32 -40 18 -18 29 -32 25
-32 -5 0 5 -9 21 -20 17 -11 26 -20 21 -20 -5 0 1 -9 14 -20 13 -11 20 -20 16
-20 -3 0 7 -14 23 -30 16 -17 34 -44 41 -60 7 -16 16 -27 21 -24 8 4 13 -11 7
-19 -2 -1 7 -13 20 -27 12 -13 22 -30 22 -37 0 -7 5 -13 10 -13 6 0 10 -5 10
-10 0 -6 11 -28 24 -49 14 -21 22 -42 19 -45 -4 -3 -1 -6 6 -6 7 0 10 -4 7 -9
-3 -5 1 -12 10 -15 8 -3 13 -10 10 -14 -3 -5 4 -26 14 -48 11 -21 20 -44 20
-51 0 -7 4 -13 8 -13 5 0 9 -6 10 -12 1 -27 12 -61 22 -72 5 -7 7 -16 3 -20
-4 -4 -1 -11 7 -16 13 -9 13 -10 0 -10 -12 0 -12 -2 -2 -9 7 -4 15 -17 17 -27
2 -10 4 -19 5 -19 2 0 6 -18 15 -65 3 -19 11 -41 18 -49 9 -12 9 -13 0 -7 -7
4 -13 2 -13 -3 0 -6 4 -11 9 -11 4 0 7 -10 7 -22 -1 -13 0 -27 3 -33 3 -5 7
-26 8 -45 3 -45 9 -80 18 -105 5 -16 5 -17 -4 -5 -8 12 -10 11 -8 -7 0 -12 5
-20 9 -17 4 3 7 -6 6 -18 -2 -54 2 -66 27 -70 14 -3 25 -1 25 3 0 5 11 4 25
-1 13 -5 27 -5 29 -1 3 5 24 5 46 1 22 -4 40 -5 40 -1 0 7 167 4 187 -3 7 -3
13 -2 13 2 0 4 15 7 33 7 29 0 32 3 30 28 -1 18 2 25 9 21 7 -5 8 -2 3 6 -5 8
-10 41 -12 74 -5 95 -17 201 -22 201 -2 0 -4 16 -6 35 -2 19 -6 46 -9 60 -3
14 -7 37 -8 53 -1 15 -5 27 -8 27 -3 0 -7 12 -8 26 -1 14 -5 31 -9 37 -4 7 -8
20 -9 30 -1 9 -3 19 -4 22 -1 3 -3 8 -4 13 -1 4 -5 12 -9 19 -4 6 -8 23 -9 37
-1 14 -6 26 -10 26 -4 0 -8 8 -8 18 0 10 -3 22 -7 26 -4 3 -8 12 -9 19 -1 7
-8 26 -15 42 -7 17 -12 33 -11 38 1 4 -3 7 -9 7 -5 0 -8 4 -4 9 3 5 1 12 -5
16 -6 4 -8 11 -5 16 4 5 2 9 -3 9 -9 0 -18 21 -27 59 -2 8 -9 17 -15 21 -6 4
-12 17 -13 28 -1 12 -4 22 -7 22 -11 0 -39 57 -32 65 4 5 1 5 -5 1 -8 -4 -13
-2 -13 6 0 8 -11 29 -25 48 -13 18 -22 38 -18 43 3 6 1 7 -5 3 -7 -4 -12 -1
-12 8 0 9 -4 16 -10 16 -5 0 -10 6 -10 13 0 8 -9 22 -20 32 -11 10 -20 22 -20
27 0 5 -6 15 -12 23 -22 23 -48 55 -48 60 0 2 -18 23 -39 47 -22 23 -37 46
-35 50 3 4 -2 8 -10 8 -9 0 -16 4 -16 8 0 14 -180 191 -201 197 -11 4 -17 10
-15 14 6 9 -22 34 -47 44 -9 3 -17 11 -17 17 0 6 -4 8 -10 5 -5 -3 -10 2 -10
11 0 10 -3 15 -6 11 -3 -3 -21 8 -39 24 -18 17 -47 38 -64 47 -16 9 -41 26
-54 37 -13 11 -30 21 -38 23 -8 2 -22 12 -31 24 -12 13 -18 16 -18 7 -1 -9 -4
-8 -11 4 -5 9 -17 17 -24 17 -8 0 -15 5 -15 11 0 5 -4 8 -8 5 -5 -3 -18 3 -28
13 -11 9 -25 16 -32 13 -6 -2 -12 1 -12 6 0 9 -37 25 -52 23 -5 -1 -8 3 -8 8
0 5 -10 12 -22 16 -13 4 -25 8 -28 9 -3 1 -27 12 -54 24 -27 12 -54 22 -62 22
-7 0 -16 5 -19 10 -3 6 -17 10 -31 10 -13 0 -24 4 -24 8 0 4 -10 9 -22 9 -13
1 -24 7 -26 13 -3 7 -9 7 -20 -2 -9 -7 -13 -8 -9 -2 7 11 -1 14 -85 30 -18 4
-39 12 -47 18 -12 9 -13 8 -6 -4 7 -13 6 -13 -7 -2 -9 7 -36 14 -61 15 -25 1
-43 5 -41 8 2 3 -11 7 -29 7 -43 3 -60 6 -74 15 -7 5 -13 4 -13 -1 0 -5 -7 -9
-15 -9 -8 0 -15 3 -15 7 0 4 -26 8 -57 9 -32 1 -74 3 -93 4 -19 1 -45 1 -58
-1z"/>
<path d="M1952 3999 c-4 -10 -7 -116 -7 -236 0 -185 3 -218 15 -219 8 -1 17
-3 20 -4 6 -3 55 -8 103 -11 20 -1 37 -5 37 -9 0 -4 15 -8 33 -9 53 -3 57 -4
57 -11 0 -3 8 -7 18 -8 41 -4 57 -10 55 -20 -1 -5 6 -8 16 -5 10 3 38 -5 62
-16 23 -12 49 -21 56 -21 7 0 13 -4 13 -10 0 -5 9 -10 20 -10 11 0 20 -4 20
-10 0 -5 7 -10 15 -10 8 0 15 -4 15 -10 0 -5 7 -7 15 -4 8 4 15 1 15 -5 0 -6
20 -20 45 -31 25 -11 45 -25 45 -30 0 -6 11 -15 25 -20 14 -5 25 -14 25 -20 0
-5 4 -9 9 -7 5 1 10 -2 11 -8 2 -5 16 -18 31 -27 16 -10 29 -22 29 -28 0 -5 8
-10 17 -10 9 0 13 -3 10 -7 -4 -3 5 -15 20 -25 16 -10 24 -18 19 -18 -5 0 3
-11 18 -25 14 -13 26 -26 26 -29 0 -3 16 -22 35 -43 19 -21 35 -44 35 -50 0
-7 5 -13 10 -13 6 0 10 -6 10 -14 0 -7 7 -19 15 -26 8 -7 13 -16 10 -20 -3 -4
2 -11 11 -14 10 -4 14 -12 10 -23 -4 -10 -4 -14 0 -10 9 8 65 -104 58 -115 -3
-4 0 -8 5 -8 6 0 11 -9 11 -20 0 -11 4 -20 8 -20 4 0 9 -12 10 -27 1 -15 8
-30 15 -35 6 -4 9 -8 5 -8 -3 0 0 -23 7 -52 8 -28 12 -55 9 -60 -3 -4 -1 -8 4
-8 5 0 8 -10 7 -22 -1 -13 3 -29 9 -37 9 -12 8 -13 -2 -7 -12 7 -12 4 -2 -14
7 -13 11 -68 11 -143 -1 -132 -2 -145 -15 -166 -6 -10 -5 -12 2 -7 7 4 12 3
12 -3 0 -5 -4 -12 -8 -15 -4 -2 -9 -20 -10 -38 -1 -19 -5 -45 -8 -58 -3 -14
-6 -31 -6 -37 -1 -7 -5 -13 -10 -13 -5 0 -7 -4 -3 -9 3 -5 1 -20 -4 -33 -13
-31 -24 -62 -25 -68 -5 -23 -43 -100 -49 -100 -5 0 -5 -5 -2 -10 3 -6 -1 -17
-9 -26 -9 -8 -16 -22 -16 -30 0 -8 -5 -14 -12 -14 -6 0 -9 -3 -5 -6 3 -4 -1
-13 -9 -21 -8 -8 -12 -19 -9 -24 4 -5 2 -9 -3 -9 -5 0 -25 -24 -45 -52 -20
-29 -50 -68 -67 -87 -16 -18 -30 -38 -30 -43 0 -5 -3 -7 -7 -5 -5 2 -18 -7
-30 -20 -12 -13 -19 -23 -15 -23 3 0 -5 -8 -18 -17 -14 -10 -38 -29 -53 -43
-15 -14 -37 -33 -48 -42 -10 -10 -19 -15 -19 -11 0 4 -9 -3 -20 -15 -12 -12
-27 -22 -36 -22 -8 0 -17 -7 -20 -15 -4 -8 -15 -15 -25 -15 -10 0 -19 -4 -19
-10 0 -5 -11 -12 -25 -16 -14 -3 -25 -10 -25 -16 0 -5 -5 -6 -11 -3 -6 4 -17
-1 -24 -11 -9 -12 -14 -14 -15 -6 0 7 -5 10 -10 7 -6 -4 -8 -11 -4 -16 3 -5 2
-9 -3 -7 -16 4 -73 -14 -68 -21 2 -5 -7 -7 -20 -5 -14 1 -25 -1 -25 -5 0 -6
-20 -11 -62 -14 -10 -1 -18 -4 -18 -7 0 -4 -6 -7 -12 -8 -7 0 -26 -3 -41 -7
-15 -3 -45 -7 -67 -8 -22 -1 -40 -4 -40 -7 0 -3 -19 -6 -42 -5 l-43 0 -1 -47
c-1 -27 -4 -55 -8 -63 -3 -8 0 -15 6 -15 8 0 9 -3 2 -10 -6 -6 -7 -35 -4 -70
3 -33 3 -60 0 -60 -3 0 -3 -27 0 -60 3 -33 3 -60 0 -60 -3 0 -4 -21 -2 -46 3
-34 8 -44 18 -40 8 3 14 1 14 -5 0 -6 5 -7 13 -2 6 4 35 8 62 9 28 1 50 3 50
4 0 1 16 4 35 6 53 6 64 9 79 18 10 7 12 6 6 -4 -6 -10 -4 -11 6 -4 8 5 21 9
29 9 8 0 21 4 28 8 6 5 17 5 22 2 6 -3 10 -1 10 5 0 6 5 8 10 5 6 -4 17 -1 25
5 8 7 15 10 15 7 0 -3 29 5 64 17 36 13 67 21 70 18 3 -3 6 0 6 6 0 7 3 11 8
11 7 -1 11 0 30 6 4 2 17 6 30 10 12 4 22 12 22 18 0 6 3 7 6 4 4 -4 25 3 48
15 89 48 181 103 184 110 2 5 10 8 18 8 8 0 14 5 14 10 0 6 4 10 10 10 9 0 35
19 65 48 8 6 18 12 24 12 5 0 12 9 16 20 3 11 10 19 14 17 13 -3 101 75 95 85
-3 5 -1 7 4 6 5 -2 29 18 55 45 25 26 43 47 39 47 -4 0 9 14 28 30 19 16 31
30 26 30 -5 0 1 8 12 19 12 10 22 23 22 30 0 6 5 11 10 11 6 0 10 7 10 16 0 9
5 12 12 8 8 -5 9 -2 5 9 -4 11 -1 17 9 17 8 0 12 5 9 10 -3 6 -1 10 5 10 6 0
8 5 5 10 -3 6 -1 10 5 10 6 0 9 4 6 9 -3 5 1 11 9 15 8 3 15 12 15 21 0 8 5
15 11 15 5 0 8 4 5 8 -3 5 4 19 15 30 11 12 17 22 13 22 -3 0 -1 7 6 15 6 8 9
19 5 25 -3 5 2 10 11 10 10 0 15 3 11 6 -3 4 2 23 13 44 11 21 16 40 13 44 -4
3 -1 6 5 6 6 0 14 16 18 35 3 19 9 35 13 35 4 0 8 7 9 15 1 8 3 22 4 30 1 8 5
15 10 15 5 0 6 5 3 10 -4 6 -1 18 6 26 6 8 9 17 5 21 -3 3 0 16 8 27 7 12 12
31 10 44 -2 12 0 22 5 22 6 0 8 9 6 20 -2 11 0 22 5 25 5 3 7 12 3 20 -3 8 0
15 6 15 8 0 9 6 2 19 -6 10 -7 21 -4 25 4 4 9 14 11 24 7 31 11 365 5 375 -4
6 -6 34 -6 64 0 29 -3 53 -7 53 -3 0 -6 8 -6 18 -1 9 -4 33 -8 52 -4 19 -9 50
-12 68 -2 19 -11 47 -19 63 -12 22 -13 29 -3 29 10 0 10 2 -1 9 -7 5 -10 14
-7 20 4 6 2 11 -3 11 -6 0 -11 9 -11 20 0 11 -5 20 -11 20 -5 0 -8 4 -5 8 3 5
-2 21 -9 36 -8 16 -12 32 -9 37 3 5 0 9 -7 9 -7 0 -9 3 -6 7 4 3 0 15 -10 25
-9 10 -13 18 -9 18 9 0 -35 82 -49 92 -5 4 -6 8 -1 8 5 0 3 7 -4 15 -7 8 -9
15 -6 15 4 0 -2 9 -13 21 -11 12 -25 34 -31 50 -7 16 -16 29 -21 29 -5 0 -9 7
-9 15 0 8 -4 15 -10 15 -5 0 -10 7 -10 15 0 8 -9 20 -20 27 -11 7 -20 17 -20
23 0 5 -14 24 -30 42 -17 18 -30 35 -30 38 0 3 -20 26 -44 50 -24 24 -42 46
-39 49 4 3 1 6 -5 6 -15 0 -58 42 -55 52 2 5 -3 7 -10 5 -6 -1 -11 4 -10 10 2
7 0 12 -5 11 -14 -3 -42 14 -36 23 3 5 -2 9 -11 9 -8 0 -18 7 -21 15 -4 8 -11
15 -18 15 -6 0 -25 12 -42 28 -16 15 -46 36 -66 46 -20 11 -35 23 -32 28 3 4
-2 5 -10 2 -9 -3 -16 -1 -16 5 0 6 -7 11 -16 11 -8 0 -12 5 -9 10 3 6 -3 10
-14 10 -11 0 -26 7 -35 15 -8 8 -19 15 -24 15 -13 0 -75 32 -83 43 -3 5 -9 8
-13 7 -14 -3 -76 25 -76 35 0 5 -5 3 -10 -5 -6 -10 -10 -11 -10 -2 0 6 -9 12
-20 12 -11 0 -20 4 -20 10 0 5 -7 6 -17 3 -10 -4 -14 -2 -10 4 4 6 1 11 -6 10
-33 -1 -58 4 -54 11 3 4 -7 8 -21 9 -66 6 -122 16 -122 22 0 3 -12 7 -27 8
-16 1 -46 4 -68 8 -22 3 -55 7 -72 8 -18 1 -33 6 -33 11 0 5 -7 1 -16 -10 -8
-10 -13 -14 -10 -8 3 7 -5 14 -20 17 -18 3 -27 0 -32 -14z"/>
<path d="M1970 3392 c-8 -3 -17 -8 -20 -13 -3 -4 -4 -96 -4 -206 2 -247 2
-253 12 -252 22 4 52 -2 48 -9 -3 -5 8 -7 23 -4 16 2 32 -1 35 -7 4 -6 18 -11
32 -11 13 0 24 -5 24 -11 0 -5 4 -8 9 -4 5 3 12 1 16 -5 4 -6 11 -8 16 -5 5 4
9 1 9 -5 0 -6 4 -9 9 -6 5 3 20 -4 35 -15 14 -11 26 -17 26 -12 0 4 4 3 8 -2
4 -6 24 -21 44 -35 21 -14 38 -29 38 -33 0 -5 5 -5 10 -2 6 3 10 -1 10 -10 0
-9 5 -13 10 -10 6 3 10 2 10 -2 0 -5 12 -23 28 -40 57 -66 69 -82 65 -87 -3
-2 5 -18 17 -34 12 -17 19 -35 16 -41 -4 -6 -2 -11 3 -11 6 0 11 -11 11 -25 0
-14 4 -25 8 -25 5 0 9 -6 10 -12 1 -7 4 -29 7 -48 3 -19 7 -53 7 -75 1 -22 6
-43 12 -47 8 -5 7 -8 -1 -8 -8 0 -11 -11 -9 -30 2 -16 0 -30 -3 -30 -4 0 -6
-12 -5 -27 1 -37 -15 -96 -30 -105 -8 -6 -7 -8 2 -8 10 0 10 -4 -2 -16 -9 -8
-16 -22 -16 -31 0 -17 -30 -74 -45 -85 -5 -4 -7 -8 -2 -8 4 0 -1 -8 -10 -19
-28 -29 -53 -64 -53 -73 0 -4 -7 -8 -16 -8 -8 0 -12 -5 -9 -10 3 -6 2 -10 -3
-10 -16 0 -61 -47 -54 -56 4 -5 3 -6 -2 -2 -5 4 -15 3 -23 -3 -7 -6 -13 -8
-14 -3 0 5 -4 0 -8 -10 -4 -11 -18 -21 -31 -23 -13 -2 -27 -8 -31 -15 -4 -6
-12 -7 -19 -3 -8 5 -11 4 -7 -2 7 -11 -58 -37 -72 -29 -5 4 -11 2 -13 -4 -2
-6 -18 -11 -36 -13 -17 -1 -32 -5 -32 -8 0 -3 -21 -5 -47 -4 -27 1 -54 -3 -60
-8 -9 -6 -13 -5 -13 3 0 10 -3 10 -15 0 -8 -7 -15 -8 -15 -4 0 5 -15 10 -32
11 -34 3 -83 10 -83 13 0 1 -11 4 -25 6 -13 2 -27 9 -31 15 -3 6 -10 10 -15 9
-12 -1 -86 32 -100 45 -6 5 -22 17 -34 25 -12 8 -28 21 -36 27 -7 7 -17 13
-23 13 -6 0 -11 7 -11 15 0 8 -7 15 -16 15 -8 0 -13 4 -9 9 3 5 -4 12 -14 16
-12 4 -18 12 -14 21 3 8 -1 14 -8 14 -13 0 -67 84 -67 104 0 5 -5 12 -11 16
-6 3 -13 16 -16 28 -2 12 -7 28 -12 35 -4 6 -8 18 -10 26 -1 8 -4 24 -7 35 -3
12 -5 25 -5 30 1 5 -5 13 -13 17 -10 7 -10 9 0 9 6 0 12 5 12 11 0 5 -5 7 -12
3 -7 -4 -8 -3 -4 5 11 17 -18 43 -33 28 -8 -8 -11 -8 -11 2 0 9 -4 10 -12 5
-16 -11 -39 -11 -55 -1 -7 5 -13 4 -13 0 0 -5 -9 -9 -20 -9 -11 0 -20 4 -20 9
0 4 -6 5 -12 0 -17 -10 -40 -10 -55 1 -9 5 -13 4 -13 -4 0 -10 -3 -10 -15 0
-11 9 -15 9 -15 1 0 -8 -6 -9 -17 -3 -17 8 -59 7 -115 -1 -16 -2 -28 0 -28 6
0 5 -5 5 -13 -2 -8 -6 -18 -7 -22 -3 -5 4 -4 1 0 -7 5 -8 10 -33 11 -55 1 -23
5 -59 9 -81 4 -22 7 -50 8 -62 0 -13 5 -23 10 -23 5 0 7 -7 4 -15 -4 -8 -2
-17 2 -19 5 -3 11 -19 14 -35 4 -17 14 -47 23 -68 10 -21 18 -40 19 -43 22
-62 37 -90 46 -84 5 3 6 -2 3 -10 -3 -9 -1 -16 6 -16 6 0 8 -4 5 -10 -3 -5 -1
-10 4 -10 6 0 11 -6 11 -13 0 -7 9 -19 19 -27 11 -7 18 -17 16 -21 -3 -3 7
-19 20 -33 14 -15 25 -31 25 -35 0 -5 11 -16 24 -27 14 -10 23 -21 20 -26 -3
-4 -1 -8 4 -8 5 0 38 -27 73 -60 35 -33 70 -60 77 -60 7 0 11 -4 8 -8 -2 -4 9
-14 25 -21 16 -7 27 -17 24 -22 -4 -5 0 -6 8 -3 8 3 21 -2 30 -10 9 -9 20 -16
26 -16 6 0 11 -4 11 -10 0 -5 7 -7 15 -4 8 4 15 2 15 -4 0 -6 16 -16 35 -22
19 -6 33 -15 30 -19 -2 -5 7 -7 20 -5 14 1 25 -2 25 -8 0 -6 7 -8 15 -4 8 3
15 2 15 -3 0 -5 15 -12 33 -16 17 -4 34 -9 37 -10 3 -1 23 -5 45 -10 22 -4 49
-10 60 -12 11 -2 45 -6 75 -9 30 -2 61 -6 68 -9 6 -2 12 0 12 6 0 6 5 7 12 3
7 -4 28 -7 47 -6 46 1 135 10 139 12 6 6 124 24 135 22 5 -2 6 2 2 8 -4 6 4
10 19 10 14 0 26 4 26 9 0 5 9 7 20 4 12 -3 20 0 20 7 0 7 8 10 20 7 11 -3 18
0 17 7 -1 6 6 10 16 8 9 -2 17 1 17 7 0 5 14 12 30 16 17 4 30 11 30 16 0 5 6
9 14 9 7 0 19 7 26 15 7 8 16 12 21 9 5 -3 9 0 9 5 0 6 5 11 11 11 6 0 17 6
24 13 34 30 43 35 49 30 3 -4 6 1 6 10 0 9 4 17 9 17 6 0 31 18 56 40 25 22
44 40 41 40 -3 0 9 15 27 33 18 19 43 48 57 67 14 18 33 41 43 51 9 11 14 19
11 19 -3 0 4 13 15 29 12 16 21 34 21 39 0 5 7 13 16 16 8 3 12 10 9 16 -3 5
0 10 7 10 10 0 9 3 -2 10 -12 8 -12 10 2 15 14 6 25 29 34 74 1 8 9 18 16 22
7 5 9 9 4 9 -5 0 -2 8 5 17 9 10 9 14 2 10 -8 -5 -8 1 2 19 8 15 12 31 9 36
-3 4 0 8 6 8 8 0 7 6 -1 21 -8 15 -8 19 0 15 6 -4 12 -1 12 6 1 7 3 22 5 33
11 67 14 112 14 208 -1 143 -3 167 -9 167 -3 0 -7 21 -8 47 -1 25 -6 49 -10
52 -4 3 -9 13 -9 21 -4 36 -13 70 -28 99 -9 17 -14 31 -10 31 3 0 -1 11 -10
25 -9 13 -16 31 -16 40 0 8 -5 15 -11 15 -6 0 -9 6 -6 13 3 8 -3 20 -14 28
-10 7 -19 22 -19 32 0 9 -6 20 -14 23 -8 3 -17 12 -20 20 -4 10 -2 13 7 7 6
-4 -5 13 -25 37 -21 24 -38 48 -38 52 0 5 -4 6 -10 3 -5 -3 -10 -2 -10 4 0 5
-19 29 -42 52 -24 24 -41 48 -40 54 2 5 1 7 -3 3 -4 -4 -19 4 -33 18 -15 13
-30 24 -35 24 -4 0 -5 5 -1 12 4 6 3 8 -3 5 -5 -3 -25 7 -44 23 -19 16 -40 29
-46 30 -7 0 -13 4 -13 9 0 9 -41 27 -48 22 -2 -1 -12 7 -22 19 -10 11 -27 22
-38 25 -11 2 -34 11 -51 19 -16 9 -37 16 -46 16 -8 0 -15 5 -15 10 0 6 -9 10
-21 10 -12 0 -17 4 -13 11 5 8 1 8 -14 0 -13 -7 -22 -7 -24 -1 -2 5 -15 11
-30 12 -16 1 -28 6 -28 11 0 5 -6 5 -13 -2 -8 -6 -17 -7 -23 -2 -10 11 -112
20 -134 13z"/>
<path d="M1855 2790 c-17 -4 -41 -6 -53 -5 -12 1 -22 -2 -22 -7 0 -4 -9 -8
-20 -8 -12 0 -34 -7 -50 -15 -17 -9 -30 -13 -30 -10 0 3 -10 -3 -22 -15 -12
-11 -28 -20 -35 -20 -7 0 -13 -4 -13 -10 0 -5 -7 -10 -15 -10 -8 0 -15 -7 -15
-16 0 -8 -3 -13 -7 -11 -5 2 -19 -8 -33 -21 -14 -14 -18 -22 -10 -17 8 4 2 -4
-14 -19 -16 -14 -25 -26 -20 -26 5 0 1 -5 -9 -11 -9 -6 -15 -14 -12 -20 4 -5
1 -9 -5 -9 -6 0 -8 -5 -5 -10 3 -6 0 -13 -9 -16 -8 -3 -13 -14 -11 -25 2 -10
0 -19 -6 -19 -5 0 -9 -11 -9 -25 0 -14 -4 -25 -8 -25 -4 0 -8 -8 -9 -17 0 -10
-2 -40 -3 -68 -2 -27 -8 -56 -14 -64 -8 -11 -8 -13 0 -8 8 5 12 -5 14 -28 3
-74 4 -84 12 -79 4 3 8 -6 8 -19 0 -13 11 -45 25 -72 13 -27 21 -53 18 -59 -3
-6 -3 -8 1 -4 10 8 36 -14 29 -24 -2 -5 1 -8 7 -8 6 0 8 -5 5 -10 -4 -6 -3 -9
2 -8 4 2 26 -16 48 -38 22 -23 50 -45 63 -49 13 -4 20 -11 16 -18 -4 -7 -4 -9
1 -5 4 4 17 2 29 -4 11 -7 24 -11 29 -10 4 1 7 -2 7 -7 0 -9 66 -26 89 -22 7
1 10 -2 7 -7 -9 -14 183 -11 219 3 17 7 36 10 43 8 6 -3 12 0 12 7 0 6 4 9 9
5 5 -3 12 -1 16 5 4 6 11 8 16 5 5 -4 9 -1 9 4 0 6 7 11 15 11 17 0 25 6 80
57 18 17 35 30 37 29 2 -2 11 6 21 16 9 10 15 18 12 18 -6 0 6 16 38 51 9 10
15 19 12 19 -3 0 4 18 16 39 11 22 21 49 22 60 1 12 4 21 7 21 8 0 8 3 14 110
2 47 -1 93 -6 104 -7 13 -7 16 1 12 5 -4 2 18 -9 48 -10 30 -16 57 -13 60 4 3
1 6 -5 6 -7 0 -12 9 -12 20 0 11 -5 20 -11 20 -5 0 -7 5 -4 10 3 6 1 10 -4 10
-6 0 -11 4 -11 10 0 22 -126 150 -147 150 -7 0 -13 5 -13 10 0 6 -9 10 -21 10
-11 0 -17 5 -14 10 5 9 -15 15 -37 11 -5 0 -8 4 -8 9 0 6 -13 10 -30 10 -16 0
-30 5 -30 11 0 6 -7 8 -16 5 -8 -3 -24 -1 -35 4 -14 8 -19 7 -19 -2 0 -8 -3
-9 -8 -3 -8 12 -54 14 -97 5z"/>
</g>
</svg>
