<?xml version="1.0" encoding="iso-8859-1"?>
<!-- Generator: Adobe Illustrator 23.0.1, SVG Export Plug-In . SVG Version: 6.00 Build 0)  -->
<svg version="1.1" id="Layer_1" xmlns="http://www.w3.org/2000/svg" xmlns:xlink="http://www.w3.org/1999/xlink" x="0px" y="0px"
	 viewBox="0 0 692 274" style="enable-background:new 0 0 692 274;" xml:space="preserve">
<title>ePoll</title>
<g id="wide">
	<path style="opacity:0.8;fill:#DCEEF7;enable-background:new    ;" d="M83.2,270.041l-1.454,0.082V239.49
		c26.567-1.723,47.843-13.276,63.276-34.371c10.773-14.576,16.285-32.375,15.635-50.489c-1.113-43.445-35.687-78.336-79.269-80.633
		c0-2.218,0.002-4.426,0.006-6.625c0.011-8.253,0.02-16.054-0.036-24.024l0.283,0.021c0.223,0.016,0.444,0.032,0.662,0.043
		c15.767,0.781,29.7,4.079,42.6,10.081c42.333,19.416,68.526,62.703,66.085,109.212c-2.55,54.348-45.048,100.2-98.854,106.655
		C89.244,269.707,86.308,269.869,83.2,270.041z"/>
	<path style="fill:#FFFFFF;" d="M50.835,224.51c8.807,3.73,18.273,5.655,27.838,5.659c21.256-0.056,41.413-9.449,55.127-25.689
		c20.851-24.553,23.343-59.802,6.155-87.045c-10.91-17.55-35.984-34.809-58.567-33.5v30.417
		c11.587,2.016,21.253,6.669,28.069,13.536c7.372,7.426,11.293,17.279,11.34,28.492c0.089,21.214-15.336,39.487-35.88,42.5
		c-9.903,1.628-20.058-0.492-28.483-5.946c-11.769-7.564-18.5-18.708-20.047-33.156H6.194C6.4,182.477,20.11,211.529,50.835,224.51z
		"/>
	<path style="fill:#FFFFFF;" d="M200.446,153.685H230.4c0.234-39.028-16.274-77.717-45.568-106.554
		C156.068,18.817,118.644,3.167,81.748,3.902v30.129c32.806,1.459,60.772,13.7,83.157,36.409
		C187.15,93.012,199.1,121.006,200.446,153.685z"/>
	<path style="opacity:0.8;fill:#DCEEF7;enable-background:new    ;" d="M78.646,189.84c18.4,0,32.817-14.542,32.832-33.1
		c0.014-18.543-14.326-33.162-32.647-33.282h-0.224c-8.635-0.047-16.933,3.352-23.053,9.444c-6.316,6.319-9.824,14.913-9.735,23.846
		C45.849,175.3,60.269,189.84,78.646,189.84z"/>
	<path style="fill:#FFFFFF;" d="M358.507,177.132c-7.388,5.639-14.634,10.306-28.523,10.306c-12.281,0-21.242-7.675-23.236-19.458
		h68.713c1.657,0,3-1.343,3-3v-0.5c0-32.177-20.388-54.649-49.579-54.649c-14.167,0-27.068,5.251-36.326,14.786
		c-9.115,9.387-14.135,22.292-14.135,36.336c0,31.139,21.113,52.886,51.343,52.886c22.106,0,35.63-9.125,45.944-18.051l0.4-0.345
		c1.253-1.084,1.39-2.979,0.306-4.232c-0.036-0.042-0.073-0.083-0.112-0.122l-13.464-13.927c-1.058-1.095-2.768-1.224-3.978-0.3
		L358.507,177.132z M308.889,145.106c3.427-5.844,10.569-9.535,19.111-9.535c8.563,0,15.213,3.416,18.89,9.535H308.889z"/>
	<path style="fill:#FFFFFF;" d="M447.056,43.247h-48.785c-1.657,0-3,1.343-3,3v161.946c0,1.657,1.343,3,3,3h23.048
		c1.657,0,3-1.343,3-3v-57.276c0-1.657,1.343-3,3-3h23.926c27.7,0,52-24.095,52-51.563
		C503.249,65.085,480.141,43.247,447.056,43.247z M424.319,73.972c0-1.657,1.343-3,3-3h16.43c18.792,0,29.57,8.769,29.57,24.059
		c0,15.52-10.824,25.162-28.248,25.162h-17.752c-1.657,0-3-1.343-3-3L424.319,73.972z"/>
	<path style="fill:#FFFFFF;" d="M545.392,109.831c-14.349,0-27.311,5.618-36.5,15.818c-8.676,9.788-13.415,22.445-13.3,35.524
		c0,31.009,20.659,52.666,50.24,52.666c28.893,0,50.681-23.021,50.681-53.548c0.086-13.131-4.952-25.778-14.043-35.253
		C573.008,115.231,559.84,109.831,545.392,109.831z M545.392,136.231c14.237,0,22.737,9.489,22.737,25.382
		c0,21.343-12.485,25.824-22.957,25.824c-13.271,0-21.194-9.819-21.194-26.265c0-17.228,10.755-24.94,21.414-24.94V136.231z"/>
	<path style="fill:#FFFFFF;" d="M613.459,73.247h21.945c1.657,0,3,1.343,3,3v131.946c0,1.657-1.343,3-3,3h-21.945
		c-1.657,0-3-1.343-3-3V76.247C610.459,74.59,611.802,73.247,613.459,73.247z"/>
	<path style="fill:#FFFFFF;" d="M660.861,43.247h21.945c1.657,0,3,1.343,3,3v161.946c0,1.657-1.343,3-3,3h-21.945
		c-1.657,0-3-1.343-3-3V46.247C657.861,44.59,659.204,43.247,660.861,43.247z"/>
</g>
</svg>
