<?xml version="1.0" encoding="iso-8859-1"?>
<!-- Generator: Adobe Illustrator 23.0.1, SVG Export Plug-In . SVG Version: 6.00 Build 0)  -->
<svg version="1.1" id="Layer_1" xmlns="http://www.w3.org/2000/svg" xmlns:xlink="http://www.w3.org/1999/xlink" x="0px" y="0px"
	 viewBox="0 0 500 500" style="enable-background:new 0 0 500 500;" xml:space="preserve">
<title>ePoll</title>
<g id="symbol-color">
	<path style="fill:#7BB2F5;" d="M185.401,494.849L182.723,495v-56.377c48.894-3.171,88.052-24.433,116.455-63.257
		c19.829-26.826,29.975-59.583,28.78-92.92c-2.047-79.956-65.679-144.17-145.887-148.397c0-4.082,0.004-8.146,0.013-12.193
		c0.018-15.189,0.035-29.546-0.066-44.214l0.519,0.039c0.41,0.029,0.817,0.059,1.218,0.079c29.02,1.437,54.66,7.507,78.401,18.553
		c77.916,35.728,126.13,115.395,121.64,200.994c-4.693,100.022-82.907,184.409-181.931,196.288
		C196.532,494.235,191.128,494.533,185.401,494.849z"/>
	<path style="fill:#2F66A9;" d="M125.843,411.054c16.209,6.865,33.632,10.407,51.235,10.415
		c39.12-0.102,76.219-17.389,101.458-47.278c38.372-45.189,42.959-110.06,11.326-160.198
		c-20.079-32.299-66.225-64.063-107.787-61.654v55.98c21.325,3.71,39.114,12.274,51.658,24.912
		c13.567,13.667,20.784,31.8,20.87,52.437c0.164,39.042-28.224,72.672-66.034,78.217c-18.226,2.995-36.915-0.906-52.42-10.943
		c-21.66-13.921-34.047-34.43-36.895-61.02H43.69C44.058,333.696,69.297,387.163,125.843,411.054z"/>
	<path style="fill:#4392F1;" d="M401.188,280.707h55.12c0.432-71.827-29.951-143.031-83.864-196.103
		C319.507,32.495,250.632,3.693,182.73,5.046v55.45c60.365,2.685,111.843,25.214,153.041,67.007
		C376.718,169.044,398.713,220.564,401.188,280.707z"/>
	<path style="fill:#BDDCF9;" d="M177.027,347.247c33.863,0,60.398-26.763,60.424-60.917c0.026-34.127-26.366-61.032-60.084-61.252
		h-0.412c-15.892-0.087-31.162,6.169-42.425,17.381c-11.625,11.628-18.082,27.445-17.918,43.886
		C116.667,320.487,143.206,347.247,177.027,347.247z"/>
</g>
</svg>
