<?xml version="1.0" encoding="iso-8859-1"?>
<!-- Generator: Adobe Illustrator 23.0.1, SVG Export Plug-In . SVG Version: 6.00 Build 0)  -->
<svg version="1.1" id="Layer_1" xmlns="http://www.w3.org/2000/svg" xmlns:xlink="http://www.w3.org/1999/xlink" x="0px" y="0px"
	 viewBox="0 0 690 278" style="enable-background:new 0 0 690 278;" xml:space="preserve">
<title>ePoll</title>
<g id="wide">
	<path style="fill:#7BB2F5;" d="M80.144,272.041l-1.455,0.082V241.49c26.568-1.723,47.844-13.276,63.277-34.371
		c10.773-14.576,16.285-32.375,15.634-50.489c-1.112-43.445-35.686-78.336-79.268-80.633c0-2.218,0.002-4.426,0.006-6.625
		c0.01-8.253,0.019-16.054-0.036-24.024l0.283,0.021c0.222,0.016,0.444,0.032,0.661,0.043c15.768,0.781,29.7,4.079,42.6,10.081
		c42.333,19.415,68.527,62.703,66.086,109.212c-2.55,54.348-45.048,100.2-98.854,106.655
		C86.189,271.707,83.253,271.869,80.144,272.041z"/>
	<path style="fill:#2F66A9;" d="M47.779,226.51c8.808,3.73,18.274,5.654,27.839,5.659c21.256-0.055,41.414-9.449,55.128-25.689
		c20.85-24.553,23.343-59.802,6.155-87.045c-10.911-17.55-35.984-34.809-58.567-33.5v30.417
		c11.586,2.016,21.252,6.669,28.069,13.536c7.371,7.426,11.293,17.279,11.34,28.492c0.089,21.214-15.336,39.487-35.881,42.5
		c-9.903,1.628-20.058-0.492-28.483-5.946c-11.769-7.564-18.5-18.708-20.046-33.156H3.138
		C3.341,184.477,17.055,213.529,47.779,226.51z"/>
	<path style="fill:#4392F1;" d="M197.391,155.685h29.949c0.235-39.028-16.273-77.717-45.568-106.554
		C153.008,20.817,115.585,5.167,78.689,5.902v30.129c32.806,1.459,60.772,13.7,83.156,36.409
		C184.1,95.012,196.045,123.006,197.391,155.685z"/>
	<path style="fill:#BDDCF9;" d="M75.591,191.84c18.4,0,32.817-14.542,32.831-33.1c0.015-18.543-14.325-33.162-32.646-33.282h-0.224
		c-8.635-0.048-16.932,3.351-23.052,9.442c-6.316,6.319-9.824,14.912-9.735,23.846C42.794,177.3,57.213,191.84,75.591,191.84z"/>
	<path style="fill:#2F66A9;" d="M355.451,179.132c-7.388,5.639-14.633,10.306-28.522,10.306c-12.281,0-21.243-7.675-23.236-19.458
		h68.712c1.657,0,3-1.343,3-3v-0.5c0-32.177-20.387-54.649-49.578-54.649c-14.167,0-27.068,5.251-36.326,14.786
		c-9.116,9.387-14.135,22.292-14.135,36.336c0,31.139,21.113,52.886,51.343,52.886c22.106,0,35.63-9.125,45.944-18.051l0.4-0.345
		c1.253-1.084,1.39-2.979,0.306-4.232c-0.036-0.042-0.073-0.083-0.112-0.122l-13.464-13.927c-1.058-1.095-2.768-1.224-3.978-0.3
		L355.451,179.132z M305.834,147.106c3.427-5.844,10.569-9.535,19.111-9.535c8.563,0,15.213,3.416,18.89,9.535H305.834z"/>
	<path style="fill:#2F66A9;" d="M444,45.247h-48.784c-1.657,0-3,1.343-3,3v161.946c0,1.657,1.343,3,3,3h23.048c1.657,0,3-1.343,3-3
		v-57.276c0-1.657,1.343-3,3-3h23.926c27.7,0,52-24.095,52-51.563C500.194,67.085,477.086,45.247,444,45.247z M421.264,75.972
		c0-1.657,1.343-3,3-3h16.43c18.792,0,29.57,8.769,29.57,24.059c0,15.52-10.824,25.162-28.248,25.162h-17.752c-1.657,0-3-1.343-3-3
		V75.972z"/>
	<path style="fill:#2F66A9;" d="M542.337,111.831c-14.349,0-27.311,5.618-36.5,15.818c-8.676,9.788-13.415,22.445-13.3,35.524
		c0,31.009,20.66,52.666,50.241,52.666c28.893,0,50.681-23.021,50.681-53.548c0.086-13.131-4.952-25.778-14.044-35.253
		C569.952,117.231,556.784,111.831,542.337,111.831z M542.337,138.231c14.236,0,22.736,9.489,22.736,25.382
		c0,21.343-12.484,25.824-22.957,25.824c-13.27,0-21.193-9.819-21.193-26.265c0-17.228,10.755-24.94,21.414-24.94V138.231z"/>
	<path style="fill:#2F66A9;" d="M610.404,75.247h21.945c1.657,0,3,1.343,3,3v131.946c0,1.657-1.343,3-3,3h-21.945
		c-1.657,0-3-1.343-3-3V78.247C607.404,76.59,608.747,75.247,610.404,75.247z"/>
	<path style="fill:#2F66A9;" d="M657.806,45.247h21.945c1.657,0,3,1.343,3,3v161.946c0,1.657-1.343,3-3,3h-21.945
		c-1.657,0-3-1.343-3-3V48.247C654.806,46.59,656.149,45.247,657.806,45.247z"/>
</g>
</svg>
